<?xml version="1.0" encoding="utf-8"?>
<!-- Generator: Adobe Illustrator 23.0.4, SVG Export Plug-In . SVG Version: 6.00 Build 0)  -->
<svg version="1.1" id="b7d53209-d177-4d97-8fa5-97496651953b"
	 xmlns="http://www.w3.org/2000/svg" xmlns:xlink="http://www.w3.org/1999/xlink" x="0px" y="0px" viewBox="0 0 1048 786"
	 style="enable-background:new 0 0 1048 786;" xml:space="preserve">
<style type="text/css">
	.st0{fill:#FE8307;}
	.st1{fill:#F0F0F0;}
	.st2{fill:#3F3D56;}
	.st3{opacity:0.1;enable-background:new    ;}
	.st4{fill:#2F2E41;}
	.st5{fill:#F2F2F2;}
	.st6{fill:#FFB9B9;}
	.st7{fill:#D0CDE1;}
</style>
<title>feedback</title>
<rect y="323" class="st0" width="976" height="463.1"/>
<rect x="161.4" y="510.6" class="st1" width="653.3" height="275.5"/>
<rect x="161.4" y="527.4" class="st2" width="653.3" height="2.6"/>
<circle class="st2" cx="173.1" cy="519.7" r="4.7"/>
<circle class="st2" cx="189.2" cy="519.7" r="4.7"/>
<circle class="st2" cx="205.3" cy="519.7" r="4.7"/>
<polygon class="st0" points="522.2,651.2 529.1,665.3 544.7,667.5 533.4,678.5 536.1,694 522.2,686.7 508.3,694 510.9,678.5 
	499.7,667.5 515.2,665.3 "/>
<polygon class="st0" points="584.7,651.2 591.7,665.3 607.2,667.5 596,678.5 598.6,694 584.7,686.7 570.8,694 573.5,678.5 
	562.2,667.5 577.8,665.3 "/>
<polygon class="st0" points="647.3,651.2 654.3,665.3 669.8,667.5 658.6,678.5 661.2,694 647.3,686.7 633.4,694 636.1,678.5 
	624.8,667.5 640.4,665.3 "/>
<polygon class="st0" points="709.9,651.2 716.8,665.3 732.4,667.5 721.1,678.5 723.8,694 709.9,686.7 696,694 698.6,678.5 
	687.4,667.5 702.9,665.3 "/>
<polygon class="st0" points="772.5,651.2 779.4,665.3 795,667.5 783.7,678.5 786.4,694 772.5,686.7 758.5,694 761.2,678.5 
	750,667.5 765.5,665.3 "/>
<rect x="206" y="591.9" class="st2" width="254.5" height="161.4"/>
<polygon class="st3" points="257.9,323 0,500 0,409.3 125.8,323 "/>
<polygon class="st3" points="551.1,323 0,701.3 0,610.6 419,323 "/>
<path class="st1" d="M149.1,455L131.4,436l18.9-17.7l17.7,18.9L149.1,455z M134.2,436.1l14.9,16l16-14.9l-14.9-16L134.2,436.1z"/>
<path class="st2" d="M732,443.1h-25.9v-25.9H732V443.1z M708.1,441.1H730v-21.9h-21.9V441.1z"/>
<circle class="st1" cx="892.4" cy="650.9" r="13.2"/>
<path class="st4" d="M892.4,689.1c-21.1,0-38.2-17.1-38.2-38.2s17.1-38.2,38.2-38.2s38.2,17.1,38.2,38.2
	C930.6,671.9,913.5,689,892.4,689.1z M892.4,615.6c-19.5,0-35.3,15.8-35.3,35.3s15.8,35.3,35.3,35.3s35.3-15.8,35.3-35.3
	C927.7,631.4,911.9,615.6,892.4,615.6z"/>
<rect x="744" y="25" class="st5" width="103" height="120"/>
<path class="st2" d="M812,324.3l-1.4-1.4c6.6-7.5,11.6-16.2,14.7-25.7c4.9-14.6,7.2-37.8-9.1-64.8c-16.7-27.6-17.4-50.1-15.1-64.1
	c2.5-15.2,8.9-23.7,9.2-24.1l1.6,1.2c-0.1,0.1-6.4,8.6-8.8,23.3c-2.2,13.6-1.4,35.5,14.9,62.6c16.7,27.7,14.2,51.5,9.2,66.5
	C821.6,314.3,812.4,323.9,812,324.3z"/>
<path class="st2" d="M887,146H743V2h144V146z M745,144h140V4H745V144z"/>
<rect x="773" y="44" class="st2" width="88" height="2"/>
<rect x="773" y="66" class="st2" width="88" height="2"/>
<rect x="773" y="88" class="st2" width="88" height="2"/>
<rect x="905" y="112" class="st5" width="103" height="120"/>
<path class="st2" d="M973,411.3l-1.4-1.4c6.6-7.5,11.6-16.2,14.7-25.7c4.9-14.6,7.2-37.8-9.1-64.8c-16.7-27.6-17.4-50.1-15.1-64.1
	c2.5-15.2,8.9-23.7,9.2-24.1l1.6,1.2c-0.1,0.1-6.4,8.6-8.8,23.3c-2.2,13.6-1.4,35.5,14.9,62.6c16.7,27.7,14.2,51.5,9.2,66.5
	C982.6,401.3,973.4,410.9,973,411.3z"/>
<path class="st2" d="M1048,233H904V89h144V233z M906,231h140V91H906V231z"/>
<rect x="934" y="131" class="st2" width="88" height="2"/>
<rect x="934" y="153" class="st2" width="88" height="2"/>
<rect x="934" y="175" class="st2" width="88" height="2"/>
<rect x="139" y="23" class="st5" width="103" height="120"/>
<path class="st2" d="M207,322.3l-1.4-1.4c6.6-7.5,11.6-16.2,14.7-25.7c4.9-14.6,7.2-37.8-9.1-64.8c-16.7-27.6-17.4-50.1-15.1-64.1
	c2.5-15.2,8.9-23.7,9.2-24.1l1.6,1.2c-0.1,0.1-6.4,8.6-8.8,23.3c-2.2,13.6-1.4,35.5,14.9,62.6c16.7,27.7,14.2,51.5,9.2,66.5
	C216.6,312.3,207.4,321.9,207,322.3z"/>
<path class="st2" d="M282,144H138V0h144V144z M140,142h140V2H140V142z"/>
<rect x="168" y="42" class="st2" width="88" height="2"/>
<rect x="168" y="64" class="st2" width="88" height="2"/>
<rect x="168" y="86" class="st2" width="88" height="2"/>
<polygon class="st1" points="469.5,366.2 476.4,380.3 492,382.5 480.7,393.5 483.4,409 469.5,401.7 455.5,409 458.2,393.5 
	447,382.5 462.5,380.3 "/>
<path class="st4" d="M494.6,48.4L494.6,48.4c24,0,43.5,21.6,43.5,48.3v33.9h-10.4l-6-12.6l1.5,12.6h-67l-5.5-11.4l1.4,11.4h-7.5V104
	C444.5,73.3,466.9,48.4,494.6,48.4z"/>
<path class="st4" d="M544.5,269.8l26.7,11.4l92.8,75.5c3.4,4.2,5.5,9.3,6,14.7c0.7,8.7,28.7,54.1,18.7,60.1s-46.1,24-48.1,12
	S628,380,628,380l-89.5-80.2L544.5,269.8z"/>
<path class="st4" d="M649.3,433.4l11.4,33.4c0,0-12,12.7-6,23.4v36.7h9.4l2.7-19.4c0,0,10.7,19.1,16,19.4
	c11.3,0.5,33.6,4.5,34.3-1.5s-16.9-11.9-16.9-11.9l-18.7-51.4l-8-31.4L649.3,433.4z"/>
<path class="st4" d="M475,261.1c0,0-6,58.8,11.4,69.5s94.2,44.8,94.2,44.8s-32.7,30.7-26,38.1s36.7,27.4,40.7,23.4
	s48.8-52.1,43.4-67.5s-79.5-65.5-79.5-65.5l-8.7-31.4l-2.7-25.4l-28.1-18L475,261.1z"/>
<circle class="st6" cx="505.6" cy="96.4" r="27.8"/>
<path class="st6" d="M484,107.8c0,0,1.3,25.4-19.4,33.4s51.4,60.1,51.4,60.1v-58.1c0,0-9.4-10,0-25.4L484,107.8z"/>
<path class="st6" d="M439.6,227l5.3,26l16,89.5c0,0-13.4,38.1,4.7,37.4s9.4-41.4,9.4-41.4l-9.4-74.1v-28.7L439.6,227z"/>
<path class="st6" d="M554.5,214.4l6,23.4l27.4,66.1c0,0,18.7,31.4,3.3,30.7s-15.4-30.7-15.4-30.7l-31.4-53.4v-30.1L554.5,214.4z"/>
<path class="st4" d="M559.2,409.4l-22,20.7c0,0-15.4-3.3-21.4,14.7s-10,29.4-10,29.4l8,4.7l10-14c0,0,6,25.4,12,27.4
	s36.1,15.4,33.4,0l-14.7-21.4c0,0-2-24,4-26s22-22,22-22L559.2,409.4z"/>
<path class="st2" d="M473.9,281.8c0,0,62.8-22.7,66.8-20.7c3,1.3,6.2,2.1,9.4,2.4l-0.1-9.1c0,0-20.7-7.3-32.1-2.7
	s-46.1,25.4-46.1,25.4L473.9,281.8z"/>
<path class="st7" d="M512.1,188c0,0-18-20.7-23.4-33.4c-3.4-7.7-9.6-13.8-17.3-17c0,0-40.1,9-39.4,25.1c0.7,16,25.4,40.7,25.4,40.7
	s-3.3,88.8,14.7,87.5c3.9-4.6,6.6-10.1,8-16c2-9.4,64.1-19.4,64.1-19.4s5.3,9.4,6,5.3s-5.3-102.2-5.3-102.2l-31.9-21.1L512.1,188z"
	/>
<path class="st7" d="M437.1,156.1l-0.4,0.3c-2.9,1.6-4.7,4.7-4.7,8l0,49.6c0,2.7-1.2,5.3-3.3,7.1c-2.6,2.2-5,5.3,0,7
	c8,2.7,39.4,16,40.1,11.4s2-10,0-10c-1.6,0-10.9-47.9-18.4-68.4c-1.7-4.8-7-7.2-11.8-5.5C437.9,155.7,437.5,155.9,437.1,156.1z"/>
<path class="st7" d="M535.8,156.2l9.4,2.7l10.7,46.1c0,0,12.7,2.7,8.7,7.3s-20.7,16.7-20.7,16.7L535.8,156.2z"/>
<path class="st4" d="M482.2,61.7c4.2-5.7,10.9-9.1,18-9.2h0.9c16.5,0,29.8,14.9,29.8,33.3v0h-5.5l-0.9-6.8l-1.3,6.8h-32.7l-2.7-5.7
	l0.7,5.7H482c-3,14.9,1.3,29.8,13,44.8h-11l-5.5-11.5l1.4,11.5h-20.9l-4.1-26.4C454.8,84.4,466.3,67.6,482.2,61.7z"/>
</svg>
