<?xml version="1.0" encoding="utf-8"?>
<!-- Generator: Adobe Illustrator 23.0.4, SVG Export Plug-In . SVG Version: 6.00 Build 0)  -->
<svg version="1.1" id="a9a7ffe7-bffb-40a8-a3c8-a3664a9c484c"
	 xmlns="http://www.w3.org/2000/svg" xmlns:xlink="http://www.w3.org/1999/xlink" x="0px" y="0px" viewBox="0 0 796 711.8"
	 style="enable-background:new 0 0 796 711.8;" xml:space="preserve">
<style type="text/css">
	.st0{fill:#E6E6E6;}
	.st1{fill:#FFFFFF;stroke:#000000;stroke-width:0.1;stroke-miterlimit:10;}
	.st2{fill:#E7E7E7;}
	.st3{fill:#FE8307;}
	.st4{fill:#3F3D56;}
	.st5{fill:#FFB8B8;}
	.st6{fill:#2F2E41;}
	.st7{fill:#575A89;}
	.st8{fill:#D0CDE1;}
</style>
<title>access_account</title>
<path class="st0" d="M97.1,554.4l-8.9-35.1c-15.8-6.7-31.9-12.5-48.3-17.3l-1.1,16.3l-4.6-18C13.8,494.6,0,492,0,492
	s18.7,71.1,57.9,125.5l45.7,8l-35.5,5.1c4.9,5.9,10.2,11.6,15.9,16.8c57.1,53,120.7,77.3,142,54.3s-7.6-84.6-64.7-137.6
	c-17.7-16.4-39.9-29.6-62.2-40L97.1,554.4z"/>
<path class="st0" d="M181.6,516.4l10.5-34.6c-10-13.9-20.9-27.2-32.4-39.8l-9.4,13.4l5.4-17.7c-14.4-15.5-25-24.9-25-24.9
	s-20.8,70.6-15.3,137.4l35,30.5l-33.1-14c1.2,7.6,2.8,15.2,4.9,22.6c21.5,74.9,63.3,128.5,93.5,119.9S253,632.8,231.6,558
	c-6.7-23.2-18.9-46-32.6-66.4L181.6,516.4z"/>
<path class="st0" d="M682.2,657.9l6.6-7.1c-0.8-4.5-1.9-9-3.2-13.4l-3.8,2.1l3.4-3.7c-1.7-5.4-3.1-9-3.1-9s-13.3,14.6-19.9,31.5
	l4.9,11.5l-6.4-7.3c-0.6,2-1.1,4-1.5,6.1c-3.6,20.7,0.2,38.6,8.5,40s18-14.1,21.6-34.8c1-6.6,1-13.3-0.1-19.9L682.2,657.9z"/>
<path class="st0" d="M780,672.1l9.4-2.7c1.7-4.3,3.1-8.7,4.2-13.1l-4.4-0.2l4.8-1.4c1.4-5.5,2-9.3,2-9.3s-19,5.7-33.3,16.7
	l-1.8,12.4l-1.7-9.5c-1.6,1.4-3,2.9-4.4,4.4c-13.8,15.8-19.7,33.1-13.4,38.7s22.7-2.8,36.4-18.6c4.3-5.1,7.7-10.9,10.2-17.1
	L780,672.1z"/>
<path class="st1" d="M518.5,48.3v612.2c0,26.7-21.6,48.3-48.3,48.3H232.3c-26.7,0-48.3-21.6-48.3-48.3V48.3
	C184,21.6,205.6,0,232.3,0h28.9c-4.8,11.7,0.9,25.1,12.6,29.9c2.7,1.1,5.7,1.7,8.6,1.7H418c12.7,0,23-10.3,22.9-23
	c0-3-0.6-5.9-1.7-8.6h30.9C496.9,0,518.5,21.6,518.5,48.3z"/>
<path class="st2" d="M317.7,253.5c0-8.5,4.6-16.4,11.9-20.7c-11.4-6.6-26-2.7-32.6,8.7c-6.6,11.4-2.7,26,8.7,32.6
	c7.4,4.3,16.5,4.3,23.9,0C322.3,270,317.7,262.1,317.7,253.5z"/>
<path class="st2" d="M347.8,253.5c0-8.5,4.6-16.4,11.9-20.7c-11.4-6.6-26-2.7-32.6,8.7c-6.6,11.4-2.7,26,8.7,32.6
	c7.4,4.3,16.5,4.3,23.9,0C352.3,270,347.8,262.1,347.8,253.5z"/>
<circle class="st3" cx="377.1" cy="253.5" r="23.9"/>
<rect x="244.6" y="409.9" class="st2" width="213.6" height="2"/>
<ellipse transform="matrix(0.1602 -0.9871 0.9871 0.1602 -174.565 576.1664)" class="st3" cx="251.3" cy="390.7" rx="6.7" ry="6.7"/>
<rect x="244.6" y="477.3" class="st2" width="213.6" height="2"/>
<ellipse transform="matrix(0.1602 -0.9871 0.9871 0.1602 -241.1356 632.8049)" class="st3" cx="251.3" cy="458.1" rx="6.7" ry="6.7"/>
<path class="st3" d="M417,328.2H277.8c-2.8,0-5-2.2-5-5V183.9c0-2.8,2.2-5,5-5H417c2.8,0,5,2.2,5,5v139.2
	C422,325.9,419.8,328.2,417,328.2z M277.8,180.9c-1.7,0-3,1.3-3,3v139.2c0,1.7,1.3,3,3,3H417c1.7,0,3-1.3,3-3V183.9c0-1.7-1.3-3-3-3
	H277.8z"/>
<path class="st3" d="M386.8,522.2h67.3c2.2,0,4,1.8,4,4v23.5c0,2.2-1.8,4-4,4h-67.3c-2.2,0-4-1.8-4-4v-23.5
	C382.8,524,384.6,522.2,386.8,522.2z"/>
<rect x="0.8" y="707.8" class="st4" width="795.2" height="2"/>
<path class="st5" d="M644.5,325.1c0,0-2.8,17.5,0,20.3S627,371.2,627,371.2l-16.6-23.1c0,0,7.4-12,4.6-22.1L644.5,325.1z"/>
<polygon class="st6" points="583.6,457 571.6,585.3 576.2,685 598.4,678.5 599.3,589 625.1,511.5 640.8,595.5 639,680.4 
	666.7,681.3 668.5,587.2 671.8,455.7 "/>
<path class="st6" d="M639.9,677.6v20.3c0,0-4.6,14.8,10.2,13.8s13.8-7.4,13.8-7.4l-5.5-24.9L639.9,677.6z"/>
<path class="st6" d="M597.5,677.6v20.3c0,0,4.6,14.8-10.2,13.8s-13.8-7.4-13.8-7.4l5.5-24.9L597.5,677.6z"/>
<circle class="st5" cx="628.8" cy="314" r="21.2"/>
<path class="st7" d="M627.9,361.1l1.8-9.2h4.6l8.9-12.8l7.7,7.3l1.8,43.4H603l4.6-46.1l6.7-4.5c0,0-1.2,15.6,11.7,15.6L627.9,361.1z
	"/>
<path class="st8" d="M608.5,350.9c0,0,7.6,9.7,19,9s22.5-9.9,22.5-9.9l15.7,120c0,0-17.5,1.8-23.1-7.4l-42.4-0.9l0.9-111.7
	L608.5,350.9z"/>
<path class="st6" d="M614.8,337.4l-40.4,20l10.2,57.2c0,0,3.7,21.2,0,29.5s-7.4,63.7-7.4,63.7s41.5,4.6,36-60.9
	S614.8,337.4,614.8,337.4z"/>
<path class="st5" d="M590.1,475.5l5.5,5.5c0,0,16.6,28.6,24,18.5s-12.9-27.7-12.9-27.7l-9.2-7.4L590.1,475.5z"/>
<path class="st6" d="M643.3,337.4l40,20l-13.8,68.3c0,0,0.9,22.1,5.5,34.1s2.8,47.1,2.8,47.1s-5.5,21.2-17.5-31.4
	S643.3,337.4,643.3,337.4z"/>
<path class="st5" d="M674.1,442.3h-8.3c0,0-27.7-3.7-25.8,7.4s27.7,8.3,27.7,8.3l10.2-0.9L674.1,442.3z"/>
<path class="st6" d="M579.9,354.6l-6.5,2.8c0,0-6.5,13.8-7.4,18.5s-12,60-9.2,66.4s30.5,40.6,30.5,40.6l15.7-16.6l-23.1-31.4
	l6.5-39.7L579.9,354.6z"/>
<path class="st6" d="M669.4,355.5l12.2,1l2.6,0.8c0,0,25.8,70.1,20.3,81.2S675,470,675,470l-6.5-28.6l12-11.1l-12-36.9L669.4,355.5z
	"/>
<path class="st6" d="M646.8,297.6c0,0,5.6-10.4-6.7-11.4c0,0-11.1-6.6-20,0.9c0,0-7.8-1.9-10,3.8c0,0-1.1-2.8,2.2-4.7
	c0,0-7.8-1.9-7.8,7.6c0,0-3.3,9.5,0,18s4.4,9.5,4.4,9.5s-5.5-17.9,7.9-18.8s28.2-9.1,29.4,1.3s3.3,13.3,3.3,13.3
	S659.6,301.9,646.8,297.6z"/>
</svg>
