<svg xmlns="http://www.w3.org/2000/svg" viewBox="0 0 72.86 99.65"><defs><style>.cls-1{isolation:isolate;}.cls-2,.cls-4{fill:#2594b5;}.cls-3{fill:#56c4dd;}.cls-4,.cls-45{opacity:0.5;}.cls-5{fill:#edb485;}.cls-6{fill:#f36d1d;}.cls-7{fill:#2485b0;}.cls-8{fill:#5da7c2;}.cls-9{fill:#ffa200;}.cls-10{fill:#ffc300;}.cls-11{fill:#29333d;}.cls-12{fill:#202830;}.cls-13{fill:#f53b0c;}.cls-14{fill:#784022;}.cls-15{fill:#d6d7d9;}.cls-16{fill:#ffca00;}.cls-17{fill:#ff8d23;}.cls-18{fill:#e0200d;}.cls-19{fill:#ffcd9c;}.cls-20{fill:#0a0c0d;}.cls-21{fill:#203145;}.cls-22{fill:#f2f6fa;}.cls-23{fill:#e1e1e1;}.cls-24,.cls-34,.cls-36{opacity:0.4;}.cls-24{mix-blend-mode:screen;}.cls-25{fill:#fefefe;}.cls-26{fill:#1e2a36;}.cls-27{fill:#cf9b72;}.cls-28{fill:#edd6b6;}.cls-29{fill:#2f4052;}.cls-30{fill:#353942;}.cls-31{fill:#fef5d6;}.cls-32{fill:#405067;}.cls-33{fill:#585b64;}.cls-34,.cls-37{fill:#333544;}.cls-34,.cls-36,.cls-45,.cls-56{mix-blend-mode:multiply;}.cls-35{fill:#343645;}.cls-38{fill:#f3ad7a;}.cls-39{fill:#2f323d;}.cls-40{fill:#0f2436;}.cls-41{fill:#bd2626;}.cls-42{fill:#eb3131;}.cls-43{fill:#fc0;}.cls-44{fill:#f1f0eb;}.cls-45{fill:#ebb386;}.cls-46{fill:#1c1919;}.cls-47{fill:#2a2626;}.cls-48{fill:#ad2e23;}.cls-49{fill:#f54131;}.cls-50{fill:#f55648;}.cls-51{fill:#85231b;}.cls-52{fill:#3d414f;}.cls-53{fill:#fec08a;}.cls-54{fill:#ffe9d4;opacity:0.3;}.cls-55{fill:#f48fb7;opacity:0.1;}.cls-56{fill:#bdbdbd;opacity:0.8;}.cls-57{fill:#1a2230;}.cls-58{fill:#eb8d00;}.cls-59{fill:#fa0;}.cls-60{fill:#e55822;}.cls-61{fill:#ec8800;}</style></defs><title>Recurso 1</title><g class="cls-1"><g id="Capa_2" data-name="Capa 2"><g id="Layer_1" data-name="Layer 1"><path class="cls-2" d="M18.49,46c.25-1.17.46-2.31.65-3.42.62-3.6,1-6.85,1.19-9.46.12-1.51.19-2.81.23-3.83,0-.08,0-.15,0-.23h18c8,5.82,24.89,21.08,26.83,47.5a48.17,48.17,0,0,1-4.87,1.77l-1.42.43c-1.54.45-3.34.93-5.4,1.38s-4.51.93-7.14,1.32c-1.53.22-3.14.42-4.83.59l-.44,0-1.07.1q-1.14.11-2.34.18c-1.13.07-2.3.13-3.5.17-1.64.05-3.35.07-5.1.05q-3.13,0-6.48-.25l-1.53-.11h0A125.11,125.11,0,0,1,7,80.3L5.29,80c-1-.21-2-.44-3.07-.68Q1.11,79,0,78.73C11,71.38,16.09,57.57,18.49,46Z"/><path class="cls-3" d="M68.29,77.27A45.47,45.47,0,0,1,63.43,79L62,79.47c-1.54.45-3.34.93-5.4,1.39s-4.51.92-7.14,1.31c-1.53.22-3.14.42-4.83.59l-.44,0-1.06.1L41.64,83l-.85.06c-1.14.07-2.31.13-3.5.17l-.73,0h-.24l-.81,0c-1.09,0-2.2,0-3.33,0l-1.74,0-2.25-.08-2.49-.14L24.18,83h0c-3.19-.25-6.51-.64-10-1.2l-.86-.14q-1.71-.28-3.45-.63c-.57-.11-1.14-.22-1.72-.35-1-.21-2-.43-3.07-.68l-2.22-.54a34.3,34.3,0,0,0,8.79-8.7,52.69,52.69,0,0,0,6.28-12,81.26,81.26,0,0,0,3.43-12c.24-1.16.46-2.31.65-3.42l0-.14c.19-1.12.36-2.21.5-3.26.31-2.25.52-4.3.66-6.06,0-.23,0-.45,0-.66.07-1,.12-1.82.16-2.56,0-.21,0-.41,0-.61,0-1.15.06-1.95.06-2.32v-.23l.11.08.28.21,3.54-.19,3.36-.17L33,27.26l2-.1L37.28,27l.11.06.4.24c.32.19.79.47,1.37.85S40.32,29,41,29.47a64.56,64.56,0,0,1,6.53,5.33,69.92,69.92,0,0,1,6,6.25A63.79,63.79,0,0,1,65.08,61.41a62.43,62.43,0,0,1,2.67,11C68,74,68.17,75.59,68.29,77.27Z"/><path class="cls-4" d="M54.29,64.27h-7.7V61.71H44.85a.78.78,0,0,0-.17-.34c0-.12.06-.24.08-.36l.6.25c0-.57,1.65-11.87,1.18-20.3-.07-1.12-.17-2.21-.32-3.28A13.26,13.26,0,0,0,52.91,41l.61.08a69.92,69.92,0,0,0-6-6.25A64.56,64.56,0,0,0,41,29.47c-.71-.51-1.33-.93-1.87-1.28s-1-.66-1.37-.85l-.4-.08V27.1L37.28,27,35,27.16l-2,.1v.21l-.36.07h0l-.44.08-.41.08-.15,0-1.83.35-.06,0a1.86,1.86,0,0,0-.47.09l-.13,0c-.27.08-.57.16-.87.26-.62.18-1.3.38-2,.57l1.12-1.5-3.54.19-.28-.21-.11.15c0,.37,0,1.17-.06,2.32,0,.2,0,.4,0,.61,0,.74-.09,1.6-.16,2.56.11-.15.22-.31.34-.46A25.66,25.66,0,0,0,27.4,32c-.62,1.52-1.42,3.27-2,4.43a8.67,8.67,0,0,1-2.77,3.44l-.08,0c-.14,1-.31,2.14-.5,3.26h0a4.12,4.12,0,0,0,2.17-.61,10.25,10.25,0,0,0,3.11-3.25C25.78,46.66,22.1,58.8,22,59.43l.63.25c-.12.25-.24.5-.37.75l0,0a.86.86,0,0,0-1.18.3l-.62,1.06a.2.2,0,0,1,0,.08l-.29.06.05-.4A1.58,1.58,0,0,0,19.46,60l.15-1.07-1.68-.23a52.69,52.69,0,0,1-6.28,12l0,.27a1.6,1.6,0,0,0,1.3,1.79l-.09,1.37-.28,0-.25,1.78,1.77.25-.75,5.48.86.14.76-5.5,1.77.24L17,74.7l-.28,0L17,73.32A1.58,1.58,0,0,0,18.69,72l.72-5.22,2.09-.35-.14-.81a.52.52,0,0,0,.87-.47.52.52,0,1,0,1-.21.52.52,0,1,0,1-.21v0l.35-.07-.09.64,1.61.22.64-4.65-.45-.06h0l-1.16-.17-.05.39-1.56.29h0c.17-.31.34-.65.52-1l.87.34a92.3,92.3,0,0,0,4-11.81v6.88a1,1,0,0,0,.81,1v.83l.19,6.93a.56.56,0,0,0-.14.38v3.09a.56.56,0,0,0,.26.47l.43,14.9,1.74,0c1.13,0,2.24,0,3.33,0v-6h1.05v6l.73,0c1.19,0,2.36-.1,3.5-.17l.85-.06.17-5.72H52.63a1.8,1.8,0,0,0,1.8-1.8V68.44a.55.55,0,0,0,.41-.53V64.82A.54.54,0,0,0,54.29,64.27Zm-17.73,0H35.51V61.75h1.05Zm8.66,0h-3l0-.95.14.07,1.1.36a.81.81,0,0,0,1-.51l.23-.72h.52Z"/><path class="cls-5" d="M63.29,27.94a.82.82,0,0,1-1,.61l-1.14-.29a.81.81,0,0,1-.6-1l.28-1.14a.82.82,0,0,1,1-.6l1.14.28a.84.84,0,0,1,.61,1Z"/><path class="cls-5" d="M61.64,31.84a.75.75,0,0,1-.89.53h0a.73.73,0,0,1-.53-.89l1.05-4.26a.72.72,0,0,1,.88-.53h0a.72.72,0,0,1,.54.88Z"/><path class="cls-6" d="M60.3,28.41c-1.57,4-5.43,7.88-9.77,8.25a9.71,9.71,0,0,1-7.47-2.54,15.72,15.72,0,0,1-3.47-4.54H36.15c0,.06.05.12.08.17,1.91,4.45,5.79,9,11.36,9.9a13.07,13.07,0,0,0,3.21.11c6-.51,10.84-5.57,12.63-10.81C62.38,28.79,61.33,28.63,60.3,28.41Z"/><path class="cls-7" d="M70.8,7.77a.36.36,0,0,0-.48.2l0,0h0V8l.1,1-.93.2.12.93-.93.2.12.93-.92.2h0l.11.93-.92.2h0l.12.93-.93.2h0l.12.93-.92.2h0l.12.93-.93.2h0l.12.92-.93.2h0l.12.93-.92.19.12.93-.93.2.12.93-.93.2.12.93-.92.2.11.9h0L71.2,7.93Z"/><polygon class="cls-7" points="71.2 7.93 60.73 22.51 62.46 22.55 72.53 8.48 71.2 7.93"/><path class="cls-8" d="M72.63,8.52l-.11,0L62.46,22.55l4.76.13L72.81,9h0l0,0A.36.36,0,0,0,72.63,8.52Z"/><path class="cls-9" d="M64.82,21.5a1.41,1.41,0,0,0-.38-.09l-.56,1.38.41-.12a4.24,4.24,0,0,1,.54.2l.34.14a.51.51,0,0,1,.28.66l-.88,2.13a2.75,2.75,0,0,1-.25.52.29.29,0,0,1-.14,0l-.5-.12L62.58,26l-.49,1.19,1.77.41a1.44,1.44,0,0,0,1.69-.83l1.74-4.23Z"/><path class="cls-10" d="M61.31,25.68a.42.42,0,0,1-.3-.59l.45-1.1a1.27,1.27,0,0,1,.67-.62l1.63-.54.12,0,.56-1.38a1.73,1.73,0,0,0-.57.05l-3.16,1.05-1.12,2.72a1.1,1.1,0,0,0,.74,1.51l1.76.42L62.58,26Z"/><path class="cls-11" d="M64,27.61l1.58-3.87a.69.69,0,0,0-.38-.91l-.34-.14a4.52,4.52,0,0,0-.62-.21,1.18,1.18,0,0,0-.3.08l-.19.46h0l.46-.15.48.18.34.14a.31.31,0,0,1,.17.41l-.87,2.14a3.44,3.44,0,0,1-.21.43l-.47-.11-1.07-.25-.56,1.36,1.76.41Z"/><path class="cls-12" d="M61.35,25.49h0a.23.23,0,0,1-.13-.31l.45-1.11a1.11,1.11,0,0,1,.56-.51l1.6-.53.19-.46-.28.09-1.63.54a1.4,1.4,0,0,0-.78.73l-1.14,2.76.17.06,1.77.42.56-1.36Z"/><path class="cls-13" d="M64.42,22.13a.25.25,0,0,0-.14-.33.25.25,0,0,0-.32.14.24.24,0,0,0,.14.32A.23.23,0,0,0,64.42,22.13Z"/><path class="cls-13" d="M61.47,23.09a.23.23,0,0,0-.13-.32.26.26,0,0,0-.33.13.25.25,0,0,0,.14.33A.24.24,0,0,0,61.47,23.09Z"/><path class="cls-13" d="M66.76,23.09a.25.25,0,0,0-.13-.33.25.25,0,0,0-.19.47A.24.24,0,0,0,66.76,23.09Z"/><path class="cls-5" d="M61.5,25.88a.5.5,0,0,0,.61-.34l0-.12a.49.49,0,0,0-.34-.6h0a.49.49,0,0,0-.61.33l0,.12a.5.5,0,0,0,.34.61Z"/><path class="cls-5" d="M62.45,26.14a.47.47,0,0,0,.6-.33l0-.12a.5.5,0,0,0-.34-.61h0a.49.49,0,0,0-.61.34l0,.12a.47.47,0,0,0,.34.6Z"/><path class="cls-5" d="M63.39,26.41a.49.49,0,0,0,.61-.34L64,26a.49.49,0,0,0-.34-.61h0a.49.49,0,0,0-.6.34l0,.12a.49.49,0,0,0,.34.6Z"/><path class="cls-5" d="M7.36,11.75a.83.83,0,0,0,.29,1.12l1,.59a.82.82,0,0,0,1.13-.29l.59-1A.83.83,0,0,0,10.09,11l-1-.59A.84.84,0,0,0,8,10.73Z"/><path class="cls-5" d="M5.82,15.68a.73.73,0,0,0,.27,1h0a.73.73,0,0,0,1-.25l2.22-3.79a.72.72,0,0,0-.26-1h0a.73.73,0,0,0-1,.26Z"/><path class="cls-5" d="M6.81,10.11a.45.45,0,0,1,.6.21l.85,1.83a1.58,1.58,0,0,1-.47.49c-.12.06-.46-.12-.46-.12l-.74-1.81A.46.46,0,0,1,6.81,10.11Z"/><path class="cls-14" d="M10.25,12.78a.34.34,0,0,1,.48.09.35.35,0,0,1-.09.48h0l.57.84h0l.15.21a3.36,3.36,0,0,0-.23-1.59c-.71-1.72-1.47-2-2.25-3.06l-.35-.51a3.35,3.35,0,0,1,.2-3.65.73.73,0,0,0,0-.79L6,6.62l4.21,6.16Z"/><path class="cls-14" d="M4.1,8.75A3.36,3.36,0,0,1,7.57,9.89l.35.51c.67,1.1.69,1.93,2,3.21a3.27,3.27,0,0,0,1.39.8l-.14-.22-.57-.84a.35.35,0,1,1-.39-.57L6,6.62,3.37,8.44A.74.74,0,0,0,4.1,8.75Z"/><polygon class="cls-15" points="8.39 5.41 8.7 5.2 8.49 4.88 8.41 4.77 8.13 4.36 8.05 4.24 7.84 3.93 7.53 4.14 5.17 5.75 6.03 7.02 8.39 5.41"/><polygon class="cls-15" points="7.62 4.43 8 4.17 7.96 4.11 7.95 4.09 7.89 4.01 7.88 3.99 7.84 3.93 7.46 4.19 4.59 6.15 4.75 6.38 7.62 4.43"/><polygon class="cls-15" points="3.67 8.63 6.03 7.02 5.17 5.75 2.81 7.36 2.5 7.58 2.71 7.89 2.79 8 3.07 8.42 3.15 8.53 3.36 8.84 3.67 8.63"/><rect class="cls-16" x="4.02" y="2.05" width="3.24" height="3.06" transform="translate(-1.04 3.8) rotate(-34.32)"/><rect class="cls-16" x="1.35" y="3.88" width="3.23" height="3.06" transform="translate(-2.53 2.62) rotate(-34.33)"/><polygon class="cls-17" points="5.37 1.91 5.75 1.65 7.48 4.18 7.1 4.44 5.37 1.91"/><rect class="cls-17" x="5.34" y="2.1" width="0.46" height="3.06" transform="translate(-1.08 3.77) rotate(-34.34)"/><rect class="cls-17" x="4.48" y="2.68" width="0.46" height="3.06" transform="translate(-1.55 3.39) rotate(-34.35)"/><polygon class="cls-17" points="2.81 3.66 3.19 3.4 4.91 5.93 4.53 6.19 2.81 3.66"/><rect class="cls-17" x="2.77" y="3.85" width="0.46" height="3.06" transform="translate(-2.51 2.64) rotate(-34.39)"/><rect class="cls-17" x="1.92" y="4.44" width="0.46" height="3.06" transform="matrix(0.82, -0.57, 0.57, 0.82, -3, 2.27)"/><path class="cls-18" d="M4.12,1.28a.75.75,0,0,1,1-1.07c.3.29.39,1.42.39,1.42S4.41,1.57,4.12,1.28Z"/><path class="cls-18" d="M4.66,2.78a1.56,1.56,0,0,1,.67-.12c.3,0,.59.14.85-.08a1.62,1.62,0,0,0,.4-.49l-.46-.68L4.17,2.74A.49.49,0,0,0,4.66,2.78Z"/><path class="cls-5" d="M10.3,11.79a.48.48,0,0,1,0-.69l.09-.09a.49.49,0,0,1,.69,0h0a.48.48,0,0,1,0,.69l-.09.08a.48.48,0,0,1-.69,0Z"/><path class="cls-5" d="M9.63,11.07a.49.49,0,0,1,0-.69l.09-.09a.5.5,0,0,1,.7,0h0a.49.49,0,0,1,0,.69l-.09.09a.49.49,0,0,1-.69,0Z"/><path class="cls-5" d="M9,10.36a.49.49,0,0,1,0-.7l.09-.08a.48.48,0,0,1,.69,0h0a.48.48,0,0,1,0,.69l-.09.09a.5.5,0,0,1-.69,0Z"/><path class="cls-6" d="M16.37,31.46a24.17,24.17,0,0,0,7.51-1.33l.83-.24a1.55,1.55,0,1,0-.85-3l-.88.25c-2.47.74-5.86,1.76-9.07.84a9.11,9.11,0,0,1-5.84-5.84A8,8,0,0,1,9,14.78L6.44,13A11,11,0,0,0,5.13,23.16,12.1,12.1,0,0,0,13.05,31,12.93,12.93,0,0,0,16.37,31.46Z"/><rect class="cls-19" x="20.34" y="23.77" width="2.44" height="1.41" transform="translate(-10.91 27.58) rotate(-54.08)"/><path class="cls-19" d="M22.43,22.37a.35.35,0,0,1-.47.17h0a.35.35,0,0,1-.17-.48l.91-1.93a.36.36,0,0,1,.48-.17h0a.34.34,0,0,1,.17.47Z"/><path class="cls-19" d="M23.85,23.29a.36.36,0,0,1-.5.09h0a.37.37,0,0,1-.09-.5l1.23-1.76A.37.37,0,0,1,25,21h0a.36.36,0,0,1,.09.5Z"/><path class="cls-19" d="M25,23.68a.4.4,0,0,0-.42-.36l-1.73.12a1.18,1.18,0,0,0-.17.56c0,.11.27.3.27.3l1.68-.2A.4.4,0,0,0,25,23.68Z"/><path class="cls-19" d="M23.32,22.56a.36.36,0,0,1-.49.12h0a.36.36,0,0,1-.13-.49l1.1-1.84a.36.36,0,0,1,.49-.13h0a.36.36,0,0,1,.13.49Z"/><rect class="cls-19" x="21.49" y="21.68" width="2.43" height="2.43" rx="0.71" transform="translate(-8.58 30.7) rotate(-59.26)"/><path class="cls-17" d="M22.88,25.17l-2.32-1.86s-3,3.75-5.17,6.64c1,.42,1.9.93,2.88,1.41C20.25,28.66,22.88,25.17,22.88,25.17Z"/><path class="cls-20" d="M23.12,18.59a.43.43,0,0,1,.44-.42h2.82a.42.42,0,0,1,.43.41v5.84a.42.42,0,0,1-.43.41H23.55a.43.43,0,0,1-.44-.42Z"/><path class="cls-21" d="M23.45,18.59a.43.43,0,0,1,.44-.42H26.7a.43.43,0,0,1,.44.41v5.84a.43.43,0,0,1-.44.41H23.87a.43.43,0,0,1-.43-.42Z"/><path class="cls-22" d="M23.62,19a.18.18,0,0,1,.18-.17h3A.16.16,0,0,1,27,19v4.64a.17.17,0,0,1-.18.16h-3a.17.17,0,0,1-.17-.17Z"/><path class="cls-23" d="M24.91,24.16a.29.29,0,0,1,.18-.07h.4l.09,0a.24.24,0,0,1,.15.22.23.23,0,0,1-.24.23h-.4a.16.16,0,0,1-.1,0,.23.23,0,0,1-.15-.21A.26.26,0,0,1,24.91,24.16Z"/><path class="cls-23" d="M24.88,18.45h.83a.09.09,0,0,1,.09.09.09.09,0,0,1-.09.1h-.83a.1.1,0,0,1-.09-.1A.09.09,0,0,1,24.88,18.45Z"/><path class="cls-23" d="M23.89,18.54a.09.09,0,0,1,.09-.08.08.08,0,0,1,.08.08.08.08,0,0,1-.08.09A.09.09,0,0,1,23.89,18.54Z"/><g class="cls-24"><polygon class="cls-25" points="25.29 18.84 25.98 18.84 26.96 19.82 26.96 21.02 24.77 18.84 25.29 18.84"/><path class="cls-25" d="M23.62,19.14,27,22.48v1.17a.17.17,0,0,1-.18.16h-.25L23.62,20.9Z"/></g><g id="Legs"><path class="cls-26" d="M24.37,56.19V54.34a6.29,6.29,0,0,1,6.27-6.27h.11A6.29,6.29,0,0,1,37,54.34l0,1.85Z"/><rect class="cls-27" x="26.92" y="93.93" width="1.97" height="2.34" transform="translate(-67.82 120.75) rotate(-88.65)"/><rect class="cls-28" x="26.44" y="95.43" width="2.85" height="2.75" transform="translate(-69.06 124.25) rotate(-89.75)"/><path class="cls-29" d="M26.31,95.74a1,1,0,0,1,1,1v.93a1,1,0,0,1-1,1h0a1,1,0,0,1-1-1v-.94a1,1,0,0,1,1-1Z"/><path class="cls-30" d="M29.67,99.14a.51.51,0,0,1-.52.51H20.62V99h9.05Z"/><path class="cls-29" d="M20.62,99h9.05V98.2h0v-1a.51.51,0,0,0-.42-.5v.06a1,1,0,1,1-1.92,0v-.07l-2,.13v0a.59.59,0,0,1-.1.34l-.07.08a.91.91,0,0,1-.43.17l-.1,0H22.49C21.46,97.45,20.62,98,20.62,99Z"/><rect class="cls-27" x="32.55" y="93.93" width="1.97" height="2.34" transform="translate(-62.33 126.38) rotate(-88.65)"/><rect class="cls-31" x="32.07" y="95.43" width="2.85" height="2.75" transform="translate(-63.46 129.88) rotate(-89.75)"/><path class="cls-32" d="M31.94,95.74a1,1,0,0,1,1,1v.93a1,1,0,0,1-1,1h0a1,1,0,0,1-1-1v-.94a1,1,0,0,1,1-1Z"/><path class="cls-33" d="M35.29,99.14a.51.51,0,0,1-.51.51H26.24V99h9.05Z"/><path class="cls-32" d="M26.25,99h9V98.2h0v-1a.51.51,0,0,0-.43-.5v.06a1,1,0,1,1-1.91,0v-.07l-2,.13v0a.59.59,0,0,1-.1.34l-.07.08a1,1,0,0,1-.43.17l-.1,0H28.12C27.09,97.45,26.25,98,26.25,99Z"/><polygon class="cls-32" points="31.24 94.42 31.24 56.19 37.05 56.19 35.95 94.42 31.24 94.42"/><path class="cls-34" d="M31.39,93.17c1.3.58,2.74-.72,3-1.87,1-5,.58-10,.29-15-.15-.72.86-1.88,1-2.74.56-5.88,0-11.63.13-17.37h1.2L36,94.42H31.24V93.1Z"/><path class="cls-35" d="M35.85,56.19H24.37l1.1,38.23h4.71v-34h1.06V93.1l.15.07c1.3.58,2.74-.72,3-1.87,1-5,.58-10,.29-15-.15-.72.86-1.88,1-2.74C36.28,67.68,35.75,61.93,35.85,56.19Z"/><g class="cls-36"><path class="cls-37" d="M28.5,91.59A26,26,0,0,0,28.5,76c2.31-4.9,0-10.1,1.16-15.43a.72.72,0,0,1,.52-.15v34H25.47l0-1.57C26.87,93,28.12,92.82,28.5,91.59Z"/></g></g><g id="Distant_hand" data-name="Distant hand"><path class="cls-38" d="M16.82,59.32c1.2.63.15,0,1.36.63,2.93-5.34,8.29-21.75,7.87-31a1.67,1.67,0,0,0-2.89-1.12,1.88,1.88,0,0,0-.49,1.11v.27c0,1.23.07,2.46,0,3.68a56.76,56.76,0,0,1-.47,6.28C21.39,45.66,20,53.24,16.82,59.32Z"/><path class="cls-38" d="M18.24,60.87a.86.86,0,0,0-.3-1.18l-1.06-.61a.84.84,0,0,0-1.17.3l-.62,1.06a.84.84,0,0,0,.3,1.17l1.06.62a.86.86,0,0,0,1.18-.3Z"/><rect class="cls-39" x="12.63" y="63.72" width="3.43" height="1.64" transform="translate(-10.34 3.21) rotate(-9.39)"/><rect class="cls-39" x="3.47" y="74.64" width="11.37" height="0.87" transform="translate(-66.48 73.9) rotate(-82.15)"/><polygon class="cls-40" points="11.21 74 12.28 68.94 7.8 68.33 7.47 73.49 11.21 74"/><polygon class="cls-41" points="20.48 63.04 20.98 59.41 14.34 60.65 13.84 64.28 20.48 63.04"/><rect class="cls-39" x="8.4" y="71.75" width="1.8" height="4.45" transform="translate(-65.24 73.06) rotate(-82.13)"/><rect class="cls-39" x="10.59" y="55.41" width="1.8" height="5.4" transform="translate(-47.64 61.52) rotate(-82.12)"/><path class="cls-42" d="M11.57,72a1.59,1.59,0,0,0,1.8-1.36l1.44-10.46a1.59,1.59,0,0,0-1.37-1.79l-3.91-.55a1.61,1.61,0,0,0-1.8,1.37L6.29,69.66a1.58,1.58,0,0,0,1.36,1.79Z"/><rect class="cls-39" x="17.95" y="60.88" width="4.7" height="1.63" transform="matrix(0.14, -0.99, 0.99, 0.14, -43.58, 73.37)"/><rect class="cls-39" x="6.01" y="67.62" width="3.75" height="0.68" transform="translate(-60.51 66.48) rotate(-82.14)"/><rect class="cls-39" x="7.16" y="67.77" width="3.75" height="0.68" transform="translate(-59.67 67.75) rotate(-82.13)"/><rect class="cls-39" x="8.32" y="67.93" width="3.75" height="0.68" transform="translate(-58.83 69.1) rotate(-82.2)"/><rect class="cls-39" x="9.47" y="68.09" width="3.75" height="0.68" transform="translate(-57.99 70.33) rotate(-82.16)"/><rect class="cls-39" x="11.33" y="58.22" width="1.64" height="3.43" transform="translate(-48.89 63.75) rotate(-82.12)"/><path class="cls-38" d="M16.27,63.27a.51.51,0,0,1,.61.39l0,.13a.51.51,0,0,1-.4.61h0a.52.52,0,0,1-.61-.4l0-.12a.51.51,0,0,1,.39-.61Z"/><path class="cls-38" d="M17.28,63.06a.51.51,0,0,1,.61.39l0,.13a.53.53,0,0,1-.4.61h0a.52.52,0,0,1-.61-.4l0-.13a.52.52,0,0,1,.4-.6Z"/><path class="cls-38" d="M18.29,62.85a.51.51,0,0,1,.61.39l0,.13a.5.5,0,0,1-.39.6h0a.51.51,0,0,1-.61-.39l0-.13a.5.5,0,0,1,.4-.6Z"/><path class="cls-38" d="M15.2,61.92a.49.49,0,0,1-.25-.63l.84-1.93a1.54,1.54,0,0,1,.71,0c.13,0,.23.44.23.44l-.91,1.83A.48.48,0,0,1,15.2,61.92Z"/><path class="cls-6" d="M22.72,32.87c.47,3.47-5.91,24.41-6,25.24l2.91,1.14c5.84-14.07,6.67-25.88,6.47-30.32a1.67,1.67,0,0,0-2.89-1.12,1.88,1.88,0,0,0-.49,1.11v.27C22.72,30.42,22.55,31.66,22.72,32.87Z"/><path class="cls-17" d="M24.8,26.81A1.57,1.57,0,0,0,23,28.05a41.72,41.72,0,0,1-2.89,7,8.68,8.68,0,0,1-2.78,3.44,1.07,1.07,0,0,1-.87.1,1.41,1.41,0,0,1-.86-.72c-.42-.86-.24-1.88.6-3.55.15-.29,1-1.53,2.12-3-1-.48-1.91-1-2.88-1.41a29.1,29.1,0,0,0-2,3c-.88,1.75-1.77,4-.63,6.36a4.57,4.57,0,0,0,2.8,2.36,4.41,4.41,0,0,0,1.23.18,4.19,4.19,0,0,0,2.17-.61,11.8,11.8,0,0,0,3.94-4.7A43,43,0,0,0,26,28.65,1.56,1.56,0,0,0,24.8,26.81Z"/></g><g id="Body"><path class="cls-6" d="M23.56,54.32a1,1,0,0,0,1,1H36.85a1,1,0,0,0,1-1V27.85a1,1,0,0,0-1-1.05l-6.49-1.16-5.85,1.12a1.13,1.13,0,0,0-1,1.09Z"/><path class="cls-43" d="M37.85,34.39v18.9H23.56V34.11a4.33,4.33,0,0,0,1.86-3.8,4.62,4.62,0,0,0-1.31-3.38,1.68,1.68,0,0,1,.41-.17l2-.38.85-.16h0s0,.18.09.46a2,2,0,0,0,0,.24c.08.42.22,1,.39,1.57v0l.06.21a.56.56,0,0,1,0,.12c.38,1.22.93,2.41,1.6,2.46a.55.55,0,0,0,.25,0c1.46-.42,3-5.18,3-5.18l.78.14,2.8.5a4.12,4.12,0,0,0,1.43,7.67Z"/><rect class="cls-44" x="23.56" y="48.07" width="14.29" height="3.08"/><rect class="cls-44" x="23.56" y="44.85" width="14.29" height="1.54"/></g><path class="cls-45" d="M35.57,50.15c1-.43.16-3.1-.27-4.11s-2-1.3-3.32-1.44c1.44.14,3.32,0,4-1.44,1.18-3.17-2.46-14.3-.16-15.74.31-.19,1.62,6.92,2,7v18.9H23.56v-3C27.46,50.92,32.11,51.62,35.57,50.15Z"/><g id="Front_Hand" data-name="Front Hand"><path class="cls-19" d="M38,57.8c-.1.61-.22,1.21-.35,1.81,1.32.3.35.35,1.68.63.18-.81.34-1.62.49-2.44Z"/><path class="cls-6" d="M35.54,29.18a35.66,35.66,0,0,1,2.12,10.63c.83,14.49-.65,18.44-.61,18.89l3,1.23c0-.57,1.65-11.86,1.18-20.29a44.6,44.6,0,0,0-2.15-11.27,2.26,2.26,0,0,0-2.52-1.43A1.77,1.77,0,0,0,35.54,29.18Z"/></g><polygon class="cls-46" points="39.89 63.14 39.89 61.2 34.93 61.2 34.93 63.14 34.14 63.14 34.14 60.39 40.67 60.39 40.67 63.14 39.89 63.14"/><path class="cls-19" d="M35.65,61.29a.43.43,0,0,0,.58.09l1.5-1.11a1.31,1.31,0,0,0-.17-.6c-.06-.1-.42-.11-.42-.11l-1.4,1.14A.44.44,0,0,0,35.65,61.29Z"/><polygon class="cls-47" points="40.49 63.14 40.49 61.2 35.52 61.2 35.52 63.14 34.74 63.14 34.74 60.39 41.27 60.39 41.27 63.14 40.49 63.14"/><path class="cls-19" d="M36.88,60a.82.82,0,0,1,1-.51L39,59.8a.81.81,0,0,1,.51,1l-.37,1.1a.81.81,0,0,1-1,.51L37,62.06a.81.81,0,0,1-.51-1Z"/><path class="cls-48" d="M25.08,66.39v7.79a1.81,1.81,0,0,0,1.8,1.8H42c1,0,1.8-2,1.8-3V66.39c0-1-.81-2.76-1.8-2.76l-16.57-.27C24.43,63.36,25.08,65.4,25.08,66.39Z"/><path class="cls-49" d="M30.4,66.39v7.79A1.8,1.8,0,0,0,32.2,76H47.31a1.81,1.81,0,0,0,1.8-1.8V66.39c0-1-.81-2.76-1.8-2.76H32.2C31.2,63.63,30.4,65.4,30.4,66.39Z"/><rect class="cls-31" x="37.46" y="69.55" width="5.15" height="3.28" transform="translate(80.07 142.38) rotate(180)"/><path class="cls-50" d="M44.42,72.76v2.48a1.22,1.22,0,0,0,.25.74h2.64a1.81,1.81,0,0,0,1.8-1.8V71.56a.9.9,0,0,0-.23,0H45.65A1.23,1.23,0,0,0,44.42,72.76Z"/><path class="cls-50" d="M35.09,72.76v2.48a1.23,1.23,0,0,1-.26.74H32.2a1.8,1.8,0,0,1-1.8-1.8V71.56a.86.86,0,0,1,.23,0h3.23A1.23,1.23,0,0,1,35.09,72.76Z"/><path class="cls-49" d="M24.42,63.49v3.09a.56.56,0,0,0,.55.56h.11V65.07a.49.49,0,0,1,.49-.49h3.25a.49.49,0,0,1,.49.49v1.44a.63.63,0,0,0,.63.63H43.65a.56.56,0,0,0,.55-.56V63.5a.56.56,0,0,0-.55-.56H25A.55.55,0,0,0,24.42,63.49Z"/><rect class="cls-50" x="29.99" y="62.94" width="19.53" height="4.19" rx="0.55" transform="translate(79.51 130.08) rotate(180)"/><rect class="cls-46" x="42.66" y="65.74" width="4.33" height="2.78" rx="1.23" transform="translate(111.96 22.31) rotate(90)"/><rect class="cls-47" x="42.93" y="65.74" width="4.33" height="2.78" rx="1.23" transform="translate(112.23 22.04) rotate(90)"/><rect class="cls-46" x="32.25" y="65.74" width="4.33" height="2.78" rx="1.23" transform="translate(101.55 32.72) rotate(90)"/><rect class="cls-47" x="32.52" y="65.74" width="4.33" height="2.78" rx="1.23" transform="translate(101.82 32.45) rotate(90)"/><rect class="cls-51" x="25.73" y="67.62" width="3.92" height="6.78" rx="1.23" transform="translate(55.38 142.01) rotate(180)"/><rect class="cls-47" x="40.5" y="69.88" width="1.64" height="2.61" transform="translate(82.64 142.38) rotate(180)"/><path class="cls-38" d="M27.71,26.74a2.17,2.17,0,0,0,2.17,2.18h0a2.17,2.17,0,0,0,2.18-2.18V19.59a2.17,2.17,0,0,0-2.18-2.18h0a2.17,2.17,0,0,0-2.17,2.18Z"/><g id="Head"><path class="cls-52" d="M24.8,13a2.57,2.57,0,0,1,.94-.16,1.07,1.07,0,0,1,.92.92A13.67,13.67,0,0,1,27,19.39c-.12.55-.6.88-1,.71a1.28,1.28,0,0,1-.66-.79.54.54,0,0,1-.47.07.87.87,0,0,1-.72-.81V13.81A.91.91,0,0,1,24.8,13Z"/><path class="cls-19" d="M24.4,20.51A4.53,4.53,0,0,0,28.93,25h0a4.53,4.53,0,0,0,4.54-4.53V15.74a4.53,4.53,0,0,0-4.54-4.53h0a4.53,4.53,0,0,0-4.53,4.53Z"/><path class="cls-53" d="M31.39,23a9.79,9.79,0,0,0,.92-3.39.65.65,0,0,1-.31,0,.88.88,0,0,1-.72-.81V14a.68.68,0,0,1,0-.14,12.57,12.57,0,0,0-1.6-2.63,4.58,4.58,0,0,1,2.9,1.8,1.79,1.79,0,0,1,.33,0,1.06,1.06,0,0,1,.92.92,17.39,17.39,0,0,1,.48,4,3,3,0,0,0-.86.82v1.74A4.53,4.53,0,0,1,28.93,25a4.65,4.65,0,0,1-1.79-.36C28.87,25,30.72,24.48,31.39,23Z"/><path class="cls-52" d="M32.12,13a2.57,2.57,0,0,1,.94-.16,1.07,1.07,0,0,1,.92.92,16,16,0,0,1,.45,4.48,1.74,1.74,0,0,0-1.14.57,4.88,4.88,0,0,0-.62.67,1,1,0,0,1-.07-.15.54.54,0,0,1-.47.07.87.87,0,0,1-.72-.81V13.81A.91.91,0,0,1,32.12,13Z"/><path class="cls-39" d="M33.32,17.48a5.24,5.24,0,0,0,0-4.59,1.16,1.16,0,0,1,.64.85,16,16,0,0,1,.45,4.48,1.74,1.74,0,0,0-1.14.57,4.88,4.88,0,0,0-.62.67,1,1,0,0,1-.07-.15.54.54,0,0,1-.47.07.9.9,0,0,1-.7-.65A1.91,1.91,0,0,0,33.32,17.48Z"/><path class="cls-53" d="M32.78,20.21c.43.3,1.15,0,1.61-.68s.49-1.45.06-1.75-1.16,0-1.62.68S32.35,19.92,32.78,20.21Z"/><path class="cls-38" d="M33.27,19.5c.17.12.47,0,.66-.28s.21-.6,0-.73-.48,0-.67.29S33.09,19.38,33.27,19.5Z"/><path class="cls-47" d="M26.35,22.08a3.19,3.19,0,0,0,0,.54,1.56,1.56,0,0,0,1.51.81,1.56,1.56,0,0,0,1.51-.81,3.19,3.19,0,0,0,0-.54Z"/><path class="cls-25" d="M26.49,22.08a.17.17,0,0,0,0,.09,2,2,0,0,0,1.39.38,2,2,0,0,0,1.39-.38.17.17,0,0,0,0-.09Z"/><path class="cls-47" d="M29.1,18.29a.58.58,0,1,0,1.12,0,.57.57,0,1,0-1.12,0Z"/><path class="cls-25" d="M29.66,18a.23.23,0,1,0,.45,0,.23.23,0,1,0-.45,0Z"/><path class="cls-47" d="M25.21,18.29a.58.58,0,1,0,1.12,0,.57.57,0,1,0-1.12,0Z"/><path class="cls-25" d="M25.77,18a.23.23,0,1,0,.45,0,.23.23,0,1,0-.45,0Z"/><path class="cls-52" d="M29,17.36a4.9,4.9,0,0,1,1.43,0,.43.43,0,0,0,.49-.33h0a.41.41,0,0,0-.38-.48,5.08,5.08,0,0,0-1.65,0,.41.41,0,0,0-.38.48h0A.43.43,0,0,0,29,17.36Z"/><path class="cls-52" d="M25.05,17.36a4.9,4.9,0,0,1,1.43,0A.45.45,0,0,0,27,17h0a.43.43,0,0,0-.39-.48,5,5,0,0,0-1.64,0,.42.42,0,0,0-.39.48h0A.44.44,0,0,0,25.05,17.36Z"/><path class="cls-38" d="M27.71,21.23h0a.74.74,0,0,0,.75-.67c0-.64-.16-1-.17-1.6a.6.6,0,0,0-.58-.67h0a.61.61,0,0,0-.59.67c0,.64-.16,1-.17,1.6A.75.75,0,0,0,27.71,21.23Z"/><path class="cls-54" d="M27.05,20.33c0,.21.11.39.24.39s.24-.18.24-.39-.11-.38-.24-.38S27.05,20.12,27.05,20.33Z"/><path class="cls-55" d="M29.68,21c.08.29.53.42,1,.29s.8-.48.72-.76-.53-.42-1-.29S29.6,20.67,29.68,21Z"/><path class="cls-55" d="M26.47,21c-.08.29-.53.42-1,.29s-.8-.48-.72-.76.53-.42,1-.29S26.55,20.67,26.47,21Z"/></g><path class="cls-56" d="M24.09,17.44V15.5H34.3a14,14,0,0,1,.15,1.94Z"/><path class="cls-57" d="M23.85,16.15h5.94l0-.06a2.12,2.12,0,0,1,1.66-.54,2.11,2.11,0,0,1,1.65.54l0,.06,1.36.07v.65H33.18a1.21,1.21,0,0,0-.55-.45,3,3,0,0,0-2.29,0,1.26,1.26,0,0,0-.55.45H23.85Z"/><path class="cls-43" d="M22.76,15.51a6.4,6.4,0,0,0,.06.88h7a2,2,0,0,1,1.7-.68,2,2,0,0,1,1.69.68h2.25a6.4,6.4,0,0,0,.06-.88c0-.12,0-.24,0-.36a6.36,6.36,0,0,0-12.71,0C22.76,15.27,22.76,15.39,22.76,15.51Z"/><path class="cls-58" d="M26.92,14.61a.26.26,0,0,0,.26.25h0a.25.25,0,0,0,.25-.25v-.89a.25.25,0,0,0-.25-.25h0a.26.26,0,0,0-.26.25Z"/><path class="cls-58" d="M26,14.61a.25.25,0,0,0,.25.25h0a.26.26,0,0,0,.26-.25v-.89a.26.26,0,0,0-.26-.25h0a.25.25,0,0,0-.25.25Z"/><path class="cls-58" d="M25,14.61a.25.25,0,0,0,.25.25h0a.25.25,0,0,0,.25-.25v-.89a.25.25,0,0,0-.25-.25h0a.25.25,0,0,0-.25.25Z"/><path class="cls-58" d="M31.6,12.55a.7.7,0,0,0,.7.69h.82a.69.69,0,0,0,.7-.69h0a.7.7,0,0,0-.7-.7H32.3a.7.7,0,0,0-.7.7Z"/><polygon class="cls-58" points="30.04 8.63 28.9 10.85 26.97 10.85 27.43 8.63 30.04 8.63"/><path class="cls-59" d="M22.76,15.51a6.4,6.4,0,0,0,.06.88h7a2,2,0,0,1,1.7-.68,2,2,0,0,1,1.69.68h2.25a6.4,6.4,0,0,0,.06-.88c0-.12,0-.24,0-.36H22.77C22.76,15.27,22.76,15.39,22.76,15.51Z"/><path class="cls-45" d="M22.93,14c3.91.55,11.67,1.3,11.59-.23S33.34,11.1,32.33,10a6.4,6.4,0,0,1,3.15,5.17c0,.12,0,.24,0,.36a6.4,6.4,0,0,1-.06.88H33.18a2,2,0,0,0-1.69-.68,2,2,0,0,0-1.7.68h-7a6.4,6.4,0,0,1-.06-.88c0-.12,0-.24,0-.36A6,6,0,0,1,22.93,14Z"/><path class="cls-60" d="M21.31,15.15h3.85a.43.43,0,0,1,.43.43V16a.43.43,0,0,1-.43.43H21.31a.43.43,0,0,1-.43-.43v-.39A.43.43,0,0,1,21.31,15.15Z"/><path class="cls-5" d="M54.38,12.7a.82.82,0,0,1-.13,1.15l-.92.73a.83.83,0,0,1-1.16-.13l-.72-.92a.8.8,0,0,1,.13-1.15l.91-.73a.83.83,0,0,1,1.16.13Z"/><path class="cls-5" d="M56.45,16.38a.74.74,0,0,1-.13,1h0a.73.73,0,0,1-1-.12l-2.72-3.44a.72.72,0,0,1,.12-1h0a.73.73,0,0,1,1,.12Z"/><path class="cls-6" d="M45.18,31.85a26.39,26.39,0,0,1-7.73-1.72l-.83-.28a1.56,1.56,0,0,1,1-3l.86.29c2.44.84,5.79,2,9,1.19a9.09,9.09,0,0,0,6.07-5.6,8,8,0,0,0-.6-7.4l2.82-1.73a11.24,11.24,0,0,1,1,10.35,12.06,12.06,0,0,1-8.22,7.5A12.85,12.85,0,0,1,45.18,31.85Z"/><rect class="cls-40" x="47.24" y="9.35" width="15.15" height="1.47" transform="translate(8.93 41.73) rotate(-45.02)"/><rect class="cls-40" x="57.58" y="1.58" width="1.84" height="1.5" transform="translate(15.5 42.07) rotate(-45.02)"/><rect class="cls-61" x="48.33" y="11.5" width="7.72" height="2.43" transform="translate(6.32 40.68) rotate(-45.06)"/><rect class="cls-39" x="59.09" y="2.14" width="2.89" height="4.45" transform="translate(14.68 44.12) rotate(-45.04)"/><path class="cls-39" d="M56.35,2.06a.55.55,0,0,0,0,.78l.62.62a.53.53,0,0,0,.77,0l1.88-1.88a.55.55,0,0,0,0-.77L59,.18a.54.54,0,0,0-.77,0Z"/><path class="cls-40" d="M63.13,4.91a3.13,3.13,0,0,1,.55,3.73c0,.09-.12.21-.2.24s-.26-.07-.25-.3A3.84,3.84,0,0,0,62.42,6L62.3,5.9a.21.21,0,0,1-.06-.1Z"/><path class="cls-5" d="M54.7,11a.46.46,0,0,0-.57.3l-.59,1.92a1.53,1.53,0,0,0,.54.42c.13,0,.44-.18.44-.18l.47-1.9A.44.44,0,0,0,54.7,11Z"/><path class="cls-5" d="M51.11,12.73a.48.48,0,0,0,0-.69L51.08,12a.48.48,0,0,0-.69,0h0a.48.48,0,0,0,0,.69l.08.09a.48.48,0,0,0,.69.05Z"/><path class="cls-5" d="M51.85,12.09a.49.49,0,0,0,0-.7l-.07-.09a.5.5,0,0,0-.7,0h0a.48.48,0,0,0-.05.69l.08.09a.49.49,0,0,0,.69.05Z"/><path class="cls-5" d="M52.6,11.44a.5.5,0,0,0,0-.69l-.08-.09a.49.49,0,0,0-.7-.05h0a.49.49,0,0,0,0,.69l.07.09a.49.49,0,0,0,.7,0Z"/></g></g></g></svg>